<?xml version="1.0" encoding="utf-8" standalone="no"?>
<!-- Created with Inkscape (http://www.inkscape.org/) -->
<svg xmlns:dc="http://purl.org/dc/elements/1.1/" xmlns:cc="http://web.resource.org/cc/" xmlns:rdf="http://www.w3.org/1999/02/22-rdf-syntax-ns#" xmlns:svg="http://www.w3.org/2000/svg" xmlns="http://www.w3.org/2000/svg" xmlns:xlink="http://www.w3.org/1999/xlink" xmlns:sodipodi="http://inkscape.sourceforge.net/DTD/sodipodi-0.dtd" xmlns:inkscape="http://www.inkscape.org/namespaces/inkscape" id="svg2" sodipodi:version="0.32" inkscape:version="0.41" width="150.19098" height="160.04512" version="1.0" sodipodi:docbase="/home/kuba" sodipodi:docname="earth_recycle.svg" inkscape:export-xdpi="156.52174" inkscape:export-ydpi="156.52174">
  <defs id="defs5">
    <linearGradient id="linearGradient3534">
      <stop style="stop-color:#87f862;stop-opacity:1.0000000;" offset="0.0000000" id="stop3536"/>
      <stop style="stop-color:#63aacc;stop-opacity:1.0000000;" offset="0.50000000" id="stop3540"/>
      <stop style="stop-color:#ffffff;stop-opacity:1.0000000;" offset="1.0000000" id="stop3538"/>
    </linearGradient>
    <linearGradient y2="-75.892204" x2="14.183682" y1="-55.518547" x1="-16.716908" gradientTransform="matrix(-0.334949,0.989494,-0.906720,-0.306931,0.000000,0.000000)" gradientUnits="userSpaceOnUse" id="linearGradient2391" xlink:href="#linearGradient8789" inkscape:collect="always"/>
    <linearGradient y2="11.496791" x2="-155.11566" y1="28.475971" x1="-178.06039" gradientTransform="matrix(-0.689453,-0.784822,0.719170,-0.631776,0.000000,0.000000)" gradientUnits="userSpaceOnUse" id="linearGradient2377" xlink:href="#linearGradient8789" inkscape:collect="always"/>
    <linearGradient inkscape:collect="always" xlink:href="#linearGradient2165" id="linearGradient10509" gradientUnits="userSpaceOnUse" x1="194.68881" y1="31.85433" x2="194.68881" y2="74.711746"/>
    <linearGradient inkscape:collect="always" xlink:href="#linearGradient4448" id="linearGradient10507" gradientUnits="userSpaceOnUse" x1="181.99649" y1="36.387283" x2="183.27852" y2="53.875359"/>
    <radialGradient inkscape:collect="always" xlink:href="#linearGradient2173" id="radialGradient10505" gradientUnits="userSpaceOnUse" gradientTransform="matrix(0.162441,2.106734,-1.690916,0.262658,228.2627,-371.4298)" cx="180.72482" cy="38.594139" fx="180.72482" fy="38.594139" r="28.884468"/>
    <radialGradient inkscape:collect="always" xlink:href="#linearGradient3598" id="radialGradient10503" gradientUnits="userSpaceOnUse" gradientTransform="matrix(-1.017858,1.575892e-16,6.233031e-7,-1.182413,391.6243,74.38870)" cx="194.07924" cy="26.293318" fx="194.07924" fy="26.293318" r="28.884468"/>
    <linearGradient id="linearGradient8789">
      <stop style="stop-color:#9eed40;stop-opacity:1.0000000;" offset="0.0000000" id="stop8791"/>
      <stop style="stop-color:#52af34;stop-opacity:1.0000000;" offset="1.0000000" id="stop8793"/>
    </linearGradient>
    <linearGradient inkscape:collect="always" id="linearGradient4448">
      <stop style="stop-color:#ffffff;stop-opacity:1;" offset="0" id="stop4450"/>
      <stop style="stop-color:#ffffff;stop-opacity:0;" offset="1" id="stop4452"/>
    </linearGradient>
    <linearGradient id="linearGradient3598" inkscape:collect="always">
      <stop id="stop3600" offset="0" style="stop-color:#ffffff;stop-opacity:1"/>
      <stop id="stop3602" offset="1" style="stop-color:#ffffff;stop-opacity:0"/>
    </linearGradient>
    <linearGradient inkscape:collect="always" id="linearGradient2173">
      <stop style="stop-color:#ffffff;stop-opacity:0.87450981" offset="0" id="stop2175"/>
      <stop style="stop-color:#ffffff;stop-opacity:0" offset="1" id="stop2177"/>
    </linearGradient>
    <linearGradient inkscape:collect="always" id="linearGradient2165">
      <stop style="stop-color:#1f2259;stop-opacity:1;" offset="0" id="stop2167"/>
      <stop style="stop-color:#2fb5ea;stop-opacity:1" offset="1" id="stop2169"/>
    </linearGradient>
    <radialGradient inkscape:collect="always" xlink:href="#linearGradient2173" id="radialGradient4325" gradientUnits="userSpaceOnUse" gradientTransform="matrix(0.162441,2.106734,-1.6909162,0.2626576,228.26265,-371.42976)" cx="180.72482" cy="38.594139" fx="180.72482" fy="38.594139" r="28.884468"/>
    <radialGradient inkscape:collect="always" xlink:href="#linearGradient3598" id="radialGradient4327" gradientUnits="userSpaceOnUse" gradientTransform="matrix(-1.0178578,0,6.2330308e-7,-1.182413,391.62431,74.388699)" cx="194.07924" cy="26.293318" fx="194.07924" fy="26.293318" r="28.884468"/>
    <linearGradient inkscape:collect="always" xlink:href="#linearGradient4448" id="linearGradient4456" x1="181.99649" y1="36.387283" x2="183.27852" y2="53.875359" gradientUnits="userSpaceOnUse"/>
    <radialGradient cx="246.84595" cy="165.74794" fx="246.84595" fy="165.74794" gradientTransform="scale(1.003037,0.996972)" gradientUnits="userSpaceOnUse" id="radialGradient4215" r="280.08582" xlink:href="#linearGradient1708"/>
    <radialGradient cx="269.58505" cy="188.82213" fx="269.58505" fy="188.82213" gradientUnits="userSpaceOnUse" id="radialGradient4214" r="250.60762" xlink:href="#linearGradient4206"/>
    <radialGradient cx="269.58505" cy="188.82213" fx="269.58505" fy="188.82213" gradientUnits="userSpaceOnUse" id="radialGradient4210" r="250.60762" xlink:href="#linearGradient4206"/>
    <radialGradient cx="246.84595" cy="165.74794" fx="246.84595" fy="165.74794" gradientTransform="scale(1.003037,0.996972)" gradientUnits="userSpaceOnUse" id="radialGradient1712" r="280.08582" xlink:href="#linearGradient1708"/>
    <linearGradient id="linearGradient1708">
      <stop id="stop1709" offset="0.00000000" style="stop-color:#5e6700;stop-opacity:1.0000000;"/>
      <stop id="stop1710" offset="1.0000000" style="stop-color:#005f00;stop-opacity:1.0000000;"/>
    </linearGradient>
    <linearGradient id="linearGradient4206">
      <stop id="stop4207" offset="0.00000000" style="stop-color:#0089af;stop-opacity:1.0000000;"/>
      <stop id="stop4208" offset="1.0000000" style="stop-color:#00005c;stop-opacity:1.0000000;"/>
    </linearGradient>
    <linearGradient inkscape:collect="always" xlink:href="#linearGradient2165" id="linearGradient1461" gradientUnits="userSpaceOnUse" x1="194.68881" y1="31.85433" x2="194.68881" y2="74.711746"/>
    <linearGradient gradientUnits="userSpaceOnUse" y2="141.79462" x2="42.925163" y1="159.77208" x1="21.739183" gradientTransform="scale(1.201332,0.832409)" id="linearGradient3544" xlink:href="#linearGradient8789" inkscape:collect="always"/>
    <linearGradient gradientUnits="userSpaceOnUse" y2="80.245102" x2="84.935219" y1="13.401171" x1="59.630257" gradientTransform="scale(1.153026,0.867283)" id="linearGradient3552" xlink:href="#linearGradient8789" inkscape:collect="always"/>
    <linearGradient gradientUnits="userSpaceOnUse" y2="137.72624" x2="7.6904998" y1="71.676041" x1="32.348618" gradientTransform="scale(1.153026,0.867283)" id="linearGradient3554" xlink:href="#linearGradient8789" inkscape:collect="always"/>
    <linearGradient gradientUnits="userSpaceOnUse" y2="118.51865" x2="123.33012" y1="163.47130" x1="69.566849" gradientTransform="scale(1.153026,0.867283)" id="linearGradient3556" xlink:href="#linearGradient8789" inkscape:collect="always"/>
  </defs>
  <sodipodi:namedview inkscape:window-height="539" inkscape:window-width="871" inkscape:pageshadow="2" inkscape:pageopacity="0.0" guidetolerance="10.0" gridtolerance="10.0" objecttolerance="10.0" borderopacity="1.0" bordercolor="#666666" pagecolor="#ffffff" id="base" inkscape:zoom="1.8536222" inkscape:cx="121.98777" inkscape:cy="82.442309" inkscape:window-x="91" inkscape:window-y="45" inkscape:current-layer="svg2"/>
  <g id="layer1" transform="matrix(0.171973,0.000000,0.000000,0.171973,188.0990,-4.281667)"/>
  <path style="stroke-dasharray:none;fill:url(#linearGradient2391);fill-opacity:1.0;fill-rule:evenodd;stroke:#3d7311;stroke-width:2.0000000;stroke-linecap:butt;stroke-linejoin:miter;stroke-miterlimit:4.0000000;stroke-opacity:1.0000000;display:inline" d="M 89.068793,16.945664 C 81.908640,17.463006 79.620163,12.276689 71.865908,22.151504 C 64.180430,31.938464 60.761967,41.921469 60.761967,41.921469 L 32.882289,46.086509 C 32.882289,46.086509 35.140996,33.983810 39.571300,28.498396 C 44.676540,19.932831 53.910036,11.661688 65.213736,8.1353099 C 76.517426,4.6089319 96.101490,16.437542 89.068793,16.945664 z" id="path2333" sodipodi:nodetypes="czccczz"/>
  <path sodipodi:type="arc" style="fill:#ffffff;fill-opacity:1.0000000;stroke:none;stroke-width:1.2500000;stroke-miterlimit:4.0000000;stroke-opacity:1.0000000;display:inline" id="path3519" sodipodi:cx="193.56345" sodipodi:cy="56.485737" sodipodi:rx="28.884468" sodipodi:ry="28.884468" d="M 222.44791 56.485737 A 28.884468 28.884468 0 1 1 164.67898,56.485737 A 28.884468 28.884468 0 1 1 222.44791 56.485737 z" transform="matrix(0.450170,0.000000,0.000000,-0.164983,6.260354,149.0962)"/>
  <path style="stroke-dasharray:none;fill:url(#linearGradient3544);fill-opacity:1.0;fill-rule:evenodd;stroke:#3d7311;stroke-width:2.0000000;stroke-linecap:butt;stroke-linejoin:miter;stroke-miterlimit:4.0000000;stroke-opacity:1.0000000;display:inline" d="M 16.170793,102.82606 C 20.198902,108.76826 16.851649,113.34330 29.280621,115.12128 C 41.599122,116.88361 51.953894,114.85259 51.953894,114.85259 L 69.500746,136.91458 C 69.500746,136.91458 57.890144,141.00984 50.924500,139.91578 C 40.953872,139.77729 29.174109,135.91643 20.468333,127.89033 C 11.762548,119.86422 12.214383,96.989644 16.170793,102.82606 z" id="path2381" sodipodi:nodetypes="czccczz"/>
  <path style="stroke-dasharray:none;fill:url(#linearGradient2377);fill-opacity:1.0;fill-rule:evenodd;stroke:#3d7311;stroke-width:2.0000000;stroke-linecap:butt;stroke-linejoin:miter;stroke-miterlimit:4.0000000;stroke-opacity:1.0000000;display:inline" d="M 126.23756,122.54035 C 129.36961,116.08080 135.00532,116.69207 130.33061,105.03929 C 125.69759,93.489990 118.76129,85.538012 118.76129,85.538012 L 129.09411,59.310992 C 129.09411,59.310992 138.44600,67.318436 140.98135,73.897892 C 145.84673,82.601946 148.39300,94.733952 145.79507,106.28644 C 143.19717,117.83891 123.16127,128.88490 126.23756,122.54035 z" id="path2365" sodipodi:nodetypes="czccczz"/>
  <path transform="matrix(2.083575,0.000000,0.000000,2.083512,-326.2439,-35.91441)" d="M 222.44791 56.485737 A 28.884468 28.884468 0 1 1 164.67898,56.485737 A 28.884468 28.884468 0 1 1 222.44791 56.485737 z" sodipodi:ry="28.884468" sodipodi:rx="28.884468" sodipodi:cy="56.485737" sodipodi:cx="193.56345" id="path3523" style="fill:url(#linearGradient10509);fill-opacity:1.0000000;stroke:none;stroke-width:1.2500000;stroke-miterlimit:4.0000000;stroke-opacity:1.0000000;display:inline" sodipodi:type="arc"/>
  <path style="opacity:0.78365386;fill:#ffffff;fill-opacity:1.0000000;display:inline" id="path3525" d="M 71.720875,140.30013 C 68.034565,139.88376 63.692748,139.03012 63.475776,138.67906 C 63.344152,138.46609 63.944108,138.15451 64.809018,137.98667 C 66.877742,137.58522 66.913327,137.58512 70.076970,137.97202 C 71.875952,138.19202 72.913726,138.12376 73.131679,137.77111 C 73.364308,137.39472 74.030166,137.46443 75.386682,138.00720 C 77.112711,138.69782 78.461997,138.73007 80.700589,138.13421 C 81.126105,138.02094 81.370000,138.21729 81.287470,138.60669 C 81.188217,139.07504 81.404520,139.16397 82.015562,138.90602 C 82.493660,138.70417 83.540116,138.57442 84.341010,138.61766 L 85.797174,138.69627 L 84.627399,137.87239 L 83.457624,137.04850 L 84.568624,136.63752 C 85.277420,136.37531 85.924575,136.42983 86.356266,136.78809 C 87.224720,137.50885 93.196538,136.99465 95.594731,135.99262 C 96.544941,135.59560 98.005603,135.26302 98.840630,135.25356 C 99.675664,135.24410 100.90493,134.92420 101.57234,134.54268 C 102.92137,133.77151 103.99930,133.61574 103.99930,134.19197 C 103.99930,134.62942 99.240475,136.74912 95.019586,138.19175 C 89.287571,140.15087 78.801081,141.09982 71.720875,140.30013 z M 84.686023,132.51067 C 82.942281,131.79425 81.967872,130.06191 82.757473,129.08205 C 83.102354,128.65407 83.050131,128.47312 82.580224,128.46788 C 82.112099,128.46265 82.080285,128.35443 82.473204,128.10383 C 82.780738,127.90770 83.180435,126.65509 83.361426,125.32028 C 83.542416,123.98545 83.975776,121.91041 84.324457,120.70907 C 84.673128,119.50773 84.955059,118.08796 84.950949,117.55404 C 84.943030,116.52566 85.368236,113.28753 85.864292,110.59849 C 86.261764,108.44381 85.304210,106.77244 82.998322,105.59607 C 81.975517,105.07427 81.019839,104.27497 80.874604,103.81984 C 80.153073,101.55889 78.474836,98.174300 77.137437,96.282909 C 75.831862,94.436521 76.723138,90.490989 78.881010,88.564437 C 80.183191,87.401845 80.405706,86.893525 80.275458,85.378934 C 80.190214,84.387736 79.944217,83.467540 79.728791,83.334059 C 79.513374,83.200579 79.316255,82.872938 79.290765,82.605977 C 79.265276,82.339006 78.971382,82.120582 78.637681,82.120582 C 78.303970,82.120582 78.083595,82.387770 78.147950,82.714317 C 78.299737,83.484489 75.389793,82.946494 74.479362,82.036073 C 74.125393,81.682100 73.632966,81.392496 73.385066,81.392496 C 73.137174,81.392496 72.934352,81.102930 72.934352,80.749018 C 72.934352,79.708962 70.884782,78.127131 69.051233,77.752075 C 68.116850,77.560941 66.873613,76.965161 66.288466,76.428100 C 65.575259,75.773507 64.413251,75.407859 62.763248,75.318834 C 60.234298,75.182374 57.633414,73.944294 58.143139,73.119542 C 58.301213,72.863770 57.776350,72.655480 56.973778,72.655480 C 55.155227,72.655480 54.594419,71.841823 55.775752,70.917290 C 56.269677,70.530733 56.435925,70.272237 56.145199,70.342852 C 55.704571,70.449863 53.838896,68.554965 52.448378,66.588105 C 52.259648,66.321144 51.441495,65.338222 50.630279,64.403848 L 49.155337,62.704986 L 49.916422,64.282500 C 50.335019,65.150143 50.873080,65.860023 51.112120,65.860023 C 51.351150,65.860023 51.429467,66.165567 51.286163,66.539011 C 51.142860,66.912455 51.258930,67.362189 51.544094,67.538438 C 51.829258,67.714678 52.062576,68.207472 52.062576,68.633536 C 52.062576,69.308207 51.937268,69.294802 51.091796,68.529664 C 50.557864,68.046466 50.121017,67.350481 50.121017,66.983032 C 50.121017,66.615583 49.786872,66.186720 49.378464,66.030003 C 48.925036,65.855997 48.743734,65.405368 48.912828,64.872605 C 49.065124,64.392763 48.962412,63.859679 48.684591,63.687973 C 48.406770,63.516259 48.179457,62.983712 48.179457,62.504530 C 48.179457,62.025338 47.653255,61.065484 47.010116,60.371526 C 45.226132,58.446576 44.735383,55.337787 45.800815,52.710904 C 46.779042,50.299052 46.968281,48.385989 46.228651,48.385989 C 45.949435,48.385989 45.860872,47.880573 46.025281,47.225462 C 46.185486,46.587177 46.080436,45.919010 45.791841,45.740650 C 45.501511,45.561214 45.267119,45.754384 45.267119,46.173086 C 45.267119,46.589289 45.040428,46.929815 44.763361,46.929815 C 44.486285,46.929815 44.301835,46.438360 44.353455,45.837687 C 44.531580,43.765098 44.293417,43.046697 43.428187,43.046697 C 42.325963,43.046697 38.901986,44.777364 38.401235,45.587599 C 38.192483,45.925373 37.849892,46.204382 37.639933,46.207615 C 37.429975,46.210849 36.248454,46.912103 35.014324,47.765974 C 33.780202,48.619835 32.642214,49.190192 32.485459,49.033446 C 32.328713,48.876691 32.900078,48.276961 33.755184,47.700713 C 34.610281,47.124456 35.384591,46.223810 35.475859,45.699276 C 35.567137,45.174733 36.442350,44.036179 37.420774,43.169148 C 38.399208,42.302118 38.787697,41.736258 38.284081,41.911678 C 36.889755,42.397336 37.549250,40.992207 39.061983,40.254274 C 39.747684,39.919771 40.439304,39.155283 40.598934,38.555412 C 40.982653,37.113359 44.335667,34.799505 46.072763,34.778022 C 46.831001,34.768643 48.761927,34.482498 50.363714,34.142160 C 51.965501,33.801803 54.080566,33.577724 55.063874,33.644181 C 56.533179,33.743500 56.839836,33.607634 56.785133,32.881560 C 56.731175,32.165176 56.557886,32.098454 55.868830,32.528779 C 55.401468,32.820655 54.868799,32.909189 54.685141,32.725521 C 54.221154,32.261544 55.422716,30.911956 56.299767,30.911956 C 56.722371,30.911956 56.911120,30.627311 56.756212,30.223626 C 56.582197,29.770159 57.102744,29.266449 58.281794,28.747383 C 59.266148,28.314032 59.634662,28.058986 59.100740,28.180599 C 57.819580,28.472428 54.947427,29.478595 53.889376,30.006239 C 53.425813,30.237417 52.606717,30.426562 52.069165,30.426562 C 51.531613,30.426562 51.091796,30.619100 51.091796,30.854416 C 51.091796,31.276219 47.632017,32.664644 45.267119,33.191902 C 44.216213,33.426191 44.281247,33.305993 45.752513,32.294726 C 51.008446,28.682066 55.680618,26.692940 62.882202,25.001930 C 66.574441,24.134956 68.872835,23.949648 76.089378,23.937073 C 84.796409,23.921906 91.328760,24.703852 89.895417,25.589707 C 89.535632,25.812071 89.058364,25.880970 88.834831,25.742814 C 88.611298,25.604667 86.160127,25.425892 83.387773,25.345530 C 79.156992,25.222909 78.390298,25.311886 78.615717,25.899333 C 78.763441,26.284278 79.158076,26.494180 79.492683,26.365780 C 80.326117,26.045964 84.246159,28.091480 86.782028,30.169423 C 87.932007,31.111744 89.056620,31.882736 89.281180,31.882736 C 89.505741,31.882736 89.973008,32.336749 90.319558,32.891656 C 90.871278,33.775107 90.831432,33.931485 89.999091,34.149145 C 88.749284,34.475975 88.408249,36.448567 89.209114,38.718464 C 89.561028,39.715892 89.743281,40.637654 89.614128,40.766817 C 89.170342,41.210602 86.302025,39.465465 84.431656,37.613694 C 83.401790,36.594076 82.325669,35.904152 82.040278,36.080533 C 81.753738,36.257621 81.661235,36.174922 81.833713,35.895847 C 82.005503,35.617885 81.810891,35.112289 81.401240,34.772300 C 80.991578,34.432320 80.768705,33.861512 80.905956,33.503838 C 81.046168,33.138454 80.836492,32.853516 80.427425,32.853516 C 80.026973,32.853516 79.573610,32.525875 79.419947,32.125433 C 79.266275,31.724982 78.908092,31.397342 78.623965,31.397342 C 78.339847,31.397342 77.752928,31.076564 77.319701,30.684502 C 76.739210,30.159167 76.154610,30.084348 75.097229,30.400083 C 74.308090,30.635719 73.952594,30.847290 74.307232,30.870234 C 75.353660,30.937946 78.828767,34.741419 78.678583,35.654639 C 78.602670,36.116260 78.684512,36.722796 78.860460,37.002502 C 79.036407,37.282218 78.982628,37.828282 78.740949,38.215979 C 78.367477,38.815096 77.989847,38.756783 76.224678,37.827405 C 75.082410,37.226007 73.778466,36.734541 73.327036,36.735286 C 72.227338,36.737087 71.717783,35.829701 72.623359,35.482199 C 73.020087,35.329959 73.469406,34.880367 73.621853,34.483111 C 73.829850,33.941053 73.657532,33.837455 72.931297,34.067964 C 72.218552,34.294174 71.963572,34.153331 71.963572,33.533409 C 71.963572,33.070478 71.819845,32.835435 71.644189,33.011100 C 71.468525,33.186755 71.086276,33.132600 70.794758,32.890751 C 70.428714,32.587082 70.266539,32.975449 70.270649,34.145903 C 70.274542,35.254113 70.572093,36.006167 71.130289,36.318546 C 71.599818,36.581312 71.881721,36.961779 71.756715,37.164027 C 71.631718,37.366275 72.118583,37.446193 72.838634,37.341605 C 73.721529,37.213375 74.859047,37.631784 76.332076,38.626611 C 78.015940,39.763827 78.552285,39.938709 78.673266,39.389977 C 78.912523,38.304853 79.366677,38.508081 81.434280,40.625493 C 82.480095,41.696506 83.548289,42.501953 83.808049,42.415369 C 84.355696,42.232823 85.622490,43.414627 86.791332,45.198498 C 87.609118,46.446589 88.795814,46.979098 88.215795,45.837687 C 88.046220,45.503985 88.360965,45.746607 88.915230,46.376851 C 89.469505,47.007104 89.919644,47.880809 89.915562,48.318410 C 89.909105,49.009465 89.846258,49.018345 89.437605,48.385989 C 89.019356,47.738806 88.961995,47.738806 88.921329,48.385989 C 88.889920,48.885675 88.798774,48.923739 88.630745,48.507338 C 88.239362,47.537388 86.135665,47.748544 86.215150,48.749800 C 86.257843,49.287512 85.881976,49.655969 85.190441,49.754336 C 84.589768,49.839779 84.098313,50.141666 84.098313,50.425218 C 84.098313,50.746495 83.366695,50.842628 82.156753,50.680339 C 80.571406,50.467694 80.213214,50.567295 80.204401,51.223170 C 80.198462,51.664948 79.766469,52.572475 79.244414,53.239888 C 78.722360,53.907300 78.290367,54.753140 78.284428,55.119533 C 78.275284,55.684167 78.145442,55.684167 77.432584,55.119533 C 76.652326,54.501516 76.653787,54.550845 77.452757,55.801896 C 78.401422,57.287340 78.237927,57.778070 76.232041,59.465922 C 74.862685,60.618154 74.416100,62.606215 75.391235,63.208876 C 76.104282,63.649570 76.887057,65.840123 76.535030,66.409706 C 76.114161,67.090694 74.837724,65.885738 74.093183,64.104592 C 73.633146,63.004045 73.041947,62.508084 71.923452,62.284381 C 69.538551,61.807395 68.565839,61.916084 68.565839,62.659541 C 68.565839,63.098594 68.226321,63.253398 67.614421,63.093391 C 66.515365,62.805974 63.562680,64.487943 62.498106,66.007841 C 61.563081,67.342770 61.575288,68.942596 62.535963,70.967063 C 63.429784,72.850658 64.153747,73.222396 66.150499,72.823047 C 67.149831,72.623175 67.698459,72.169812 67.896673,71.380070 C 68.055633,70.746725 68.435045,70.211813 68.739807,70.191395 C 69.044569,70.170967 69.675302,70.081207 70.141429,69.991928 C 71.407619,69.749410 71.610621,70.506007 70.734136,72.200939 C 70.303095,73.034486 70.073850,73.839894 70.224704,73.990748 C 70.375557,74.141593 70.248308,74.567053 69.941943,74.936218 C 69.480653,75.492029 69.699896,75.572692 71.217391,75.405464 C 74.222987,75.074251 74.817098,75.420010 74.788611,77.483851 C 74.740535,80.967498 75.872161,82.417954 77.823411,81.373681 C 78.466739,81.029374 79.052319,81.029921 79.697900,81.375415 C 80.946717,82.043775 81.004606,82.031972 82.065570,80.893150 C 82.570157,80.351555 83.397756,79.824296 83.904700,79.721471 C 84.411634,79.618646 85.244474,79.369378 85.755452,79.167545 C 86.406944,78.910208 86.579658,78.970237 86.333548,79.368445 C 86.140510,79.680786 86.213896,79.936322 86.496619,79.936322 C 86.779332,79.936322 87.010651,79.730851 87.010651,79.479717 C 87.010651,79.228592 87.595657,79.326619 88.310674,79.697575 C 89.025681,80.068530 89.823917,80.240245 90.084534,80.079182 C 90.345142,79.918110 90.417868,80.013677 90.246143,80.291535 C 90.074410,80.569394 90.422911,80.927803 91.020576,81.087989 C 92.548006,81.497377 92.935298,81.461546 92.613370,80.940642 C 92.459773,80.692128 92.589841,80.330741 92.902409,80.137561 C 93.257339,79.918204 93.340680,79.996728 93.124377,80.346719 C 92.802383,80.867708 93.478317,81.099254 95.140934,81.037509 C 95.474636,81.025104 95.751608,81.372946 95.756416,81.810472 C 95.768670,82.924134 99.076810,85.537593 100.93987,85.905447 C 102.81773,86.276215 104.48468,87.615084 104.48468,88.752573 C 104.48468,89.211413 104.71734,89.730621 105.00169,89.906361 C 105.33999,90.115443 105.21859,90.586754 104.65053,91.269834 C 104.17303,91.843998 104.09072,92.043296 104.46760,91.712724 C 105.02361,91.225038 105.73384,91.431029 108.23321,92.804852 C 109.92740,93.736096 111.70904,94.498020 112.19240,94.498020 C 112.67577,94.498020 113.45326,94.920143 113.92016,95.436071 C 114.38707,95.951988 115.07620,96.256260 115.45156,96.112222 C 115.94522,95.922775 116.13404,96.256524 116.13404,97.318798 C 116.13404,98.354028 115.49689,99.533701 113.97441,101.31734 C 112.78662,102.70888 111.66688,104.52872 111.48611,105.36143 C 110.98764,107.65766 108.80973,110.42976 107.03299,111.02947 C 106.16534,111.32234 105.45546,111.86761 105.45546,112.24120 C 105.45546,112.61479 104.85479,113.30663 104.12065,113.77862 C 103.38649,114.25062 102.39190,115.12403 101.91047,115.71955 C 99.526723,118.66805 96.929726,120.73608 95.849268,120.54618 C 95.010875,120.39882 94.772090,120.55555 94.878460,121.18342 C 95.029681,122.07605 93.984064,123.62141 93.228880,123.62141 C 92.976785,123.62141 91.583731,124.64601 90.133203,125.89832 C 88.381279,127.41080 87.690894,128.29575 88.076772,128.53423 C 88.484566,128.78626 88.303792,129.19248 87.470113,129.89743 C 86.356756,130.83887 86.335631,130.94288 87.132000,131.56219 C 87.599192,131.92550 87.981431,132.33701 87.981431,132.47667 C 87.981431,133.09226 86.147637,133.11118 84.686023,132.51067 z M 82.733152,49.025188 C 82.382765,48.884977 81.964121,48.902218 81.802822,49.063508 C 81.641533,49.224806 81.928215,49.339518 82.439900,49.318450 C 83.005355,49.295157 83.120369,49.180143 82.733152,49.025188 z M 86.022668,46.823710 C 86.032132,46.631859 85.712231,46.600620 85.311789,46.754283 C 84.886329,46.917551 84.580615,46.759910 84.576269,46.375013 C 84.570218,45.838338 84.488706,45.842919 84.136217,46.399729 C 83.873827,46.814189 83.912184,47.540951 84.233678,48.246542 L 84.763765,49.409973 L 85.384619,48.291243 C 85.726088,47.675940 86.013213,47.015550 86.022668,46.823710 z M 70.507398,48.188615 C 70.507398,48.091616 70.008127,47.685112 69.397906,47.285283 C 68.402664,46.633170 68.185240,46.641870 67.286338,47.369755 C 66.311741,48.158940 66.342160,48.183704 68.395830,48.273087 C 69.557197,48.323633 70.507398,48.285615 70.507398,48.188615 z M 69.339998,45.690019 C 68.459214,45.045966 68.457084,44.999521 69.293723,44.678479 C 69.776016,44.493407 70.990266,44.560760 71.992069,44.828155 C 73.537286,45.240597 73.771151,45.203908 73.534147,44.586278 C 73.353298,44.115014 73.453691,43.981175 73.818793,44.206819 C 74.129013,44.398547 74.766798,44.331807 75.236101,44.058511 C 76.011081,43.607203 75.994735,43.560258 75.057929,43.546853 C 74.267282,43.535532 74.026470,43.229300 74.026470,42.235123 C 74.026470,41.521793 73.616932,40.638681 73.116370,40.272665 C 72.615808,39.906649 72.260868,39.507376 72.327609,39.385377 C 72.663601,38.771262 72.369302,38.192799 71.720875,38.192799 C 71.320423,38.192799 70.992792,37.956172 70.992792,37.666964 C 70.992792,37.377747 70.719760,37.239025 70.386049,37.358677 C 70.052348,37.478329 69.391807,37.376823 68.918186,37.133098 C 68.249576,36.789027 67.778482,37.021016 66.811039,38.170769 C 66.125725,38.985208 65.389385,39.543027 65.174723,39.410367 C 64.960070,39.277697 64.660200,39.492916 64.508356,39.888635 C 64.356503,40.284345 64.388224,40.559667 64.578839,40.500459 C 64.769454,40.441250 65.535799,41.009580 66.281820,41.763407 C 67.130507,42.620973 67.928280,43.022697 68.413109,42.836644 C 69.414186,42.452501 71.090509,42.981295 70.728489,43.567036 C 70.575383,43.814776 70.122472,44.017477 69.722021,44.017477 C 69.295269,44.017477 69.137279,43.785554 69.340272,43.457093 C 69.556574,43.107103 69.473234,43.028579 69.118313,43.247936 C 68.805746,43.441115 68.675668,43.802503 68.829265,44.051016 C 68.982853,44.299539 68.877209,44.502871 68.594486,44.502871 C 68.311764,44.502871 68.080454,44.284447 68.080454,44.017477 C 68.080454,43.163464 66.260865,43.498618 66.026237,44.395860 C 65.759474,45.415932 66.889968,46.707206 67.369914,45.930643 C 67.585303,45.582141 67.869251,45.582339 68.289668,45.931256 C 68.624171,46.208869 69.041571,46.292285 69.217236,46.116630 C 69.392891,45.940965 69.536618,46.088482 69.536618,46.444430 C 69.536618,46.800379 69.700094,46.928137 69.899901,46.728341 C 70.099697,46.528534 69.847753,46.061286 69.339998,45.690019 z M 72.934352,43.075344 C 72.934352,42.824135 73.150277,42.485154 73.414184,42.322055 C 73.689328,42.151999 73.770699,42.346838 73.604941,42.778793 C 73.282259,43.619693 72.934352,43.773544 72.934352,43.075344 z M 66.838405,41.848661 C 66.320187,41.456703 66.151366,41.129072 66.463235,41.120578 C 67.385374,41.095475 68.565839,41.660987 68.565839,42.127848 C 68.565839,42.763984 67.908003,42.657661 66.838405,41.848661 z M 83.127533,46.582850 C 83.127533,46.525508 82.713620,46.257058 82.207723,45.986316 C 81.551933,45.635345 81.145807,45.665275 80.792828,46.090584 C 80.420534,46.539168 80.648667,46.687128 81.712638,46.687128 C 82.490832,46.687128 83.127533,46.640202 83.127533,46.582850 z M 75.846691,45.473651 C 75.846691,45.206689 75.506155,44.988256 75.089951,44.988256 C 74.673748,44.988256 74.468220,45.206689 74.633214,45.473651 C 74.798207,45.740612 75.138734,45.959036 75.389943,45.959036 C 75.641153,45.959036 75.846691,45.740612 75.846691,45.473651 z M 77.545552,45.473651 C 77.380559,45.206689 77.149239,44.988256 77.031511,44.988256 C 76.913791,44.988256 76.817470,45.206689 76.817470,45.473651 C 76.817470,45.740612 77.048780,45.959036 77.331503,45.959036 C 77.614225,45.959036 77.710546,45.740612 77.545552,45.473651 z M 61.770381,43.030530 C 61.154589,42.618899 61.248157,42.361628 62.377125,41.362380 C 63.111268,40.712586 63.711941,39.910278 63.711941,39.579480 C 63.711941,39.248682 63.402164,39.401685 63.023544,39.919479 C 62.644925,40.437272 62.171672,40.697447 61.971866,40.497640 C 61.772059,40.297834 61.863413,40.134358 62.174867,40.134358 C 62.486332,40.134358 62.741161,39.806727 62.741161,39.406276 C 62.741161,38.464228 61.822793,38.462221 61.461594,39.403495 C 61.308516,39.802400 60.984165,40.005732 60.740818,39.855340 C 60.497479,39.704939 60.424046,39.378562 60.577634,39.130039 C 60.731231,38.881525 60.638463,38.678193 60.371502,38.678193 C 60.104541,38.678193 59.748922,38.900180 59.581233,39.171497 C 59.413552,39.442813 59.049695,39.524730 58.772685,39.353515 C 58.447938,39.152813 58.502961,38.893997 58.927573,38.624952 C 59.463796,38.285180 59.450891,38.209484 58.858043,38.217440 C 57.936470,38.229798 55.480237,39.608542 56.338397,39.631769 C 56.687860,39.641234 56.851364,39.847026 56.701764,40.089092 C 56.552164,40.331167 56.921517,40.426686 57.522548,40.301369 L 58.615345,40.073519 L 57.496615,40.741987 L 56.377895,41.410465 L 57.726332,42.024853 C 58.699044,42.468054 59.125343,42.487502 59.256298,42.094629 C 59.387318,41.701559 59.633692,41.712560 60.141691,42.134164 C 60.708965,42.604948 60.723350,42.795827 60.215841,43.117773 C 59.805680,43.377948 60.093832,43.517226 61.042299,43.517226 C 62.176168,43.517226 62.337325,43.409508 61.770381,43.030530 z M 59.931035,41.296884 C 59.237463,40.546508 59.705833,40.402913 60.730071,41.051896 C 61.092279,41.281406 61.201495,41.582774 60.972768,41.721609 C 60.744041,41.860435 60.275266,41.669310 59.931035,41.296884 z M 78.985060,41.177883 C 78.711557,40.889976 77.788250,41.619651 77.788250,42.123701 C 77.788250,42.385440 78.093851,42.317945 78.467370,41.973714 C 78.840899,41.629483 79.073850,41.271357 78.985060,41.177883 z M 65.168115,41.885161 C 65.168115,41.780233 64.829125,41.564317 64.414816,41.405328 C 63.982861,41.239570 63.788023,41.320941 63.958069,41.596084 C 64.243120,42.057309 65.168115,42.278278 65.168115,41.885161 z M 57.783156,36.960045 C 58.202649,36.594736 57.962459,36.464969 56.913354,36.490129 C 56.116231,36.509255 55.080945,36.947498 54.612735,37.464010 C 53.778839,38.383933 53.782780,38.385450 54.805387,37.538263 C 55.891124,36.638767 56.776696,37.138236 56.181048,38.314147 C 56.012010,38.647859 56.172941,38.593250 56.538665,38.192799 C 56.904389,37.792357 57.464414,37.237611 57.783156,36.960045 z M 61.770381,37.678766 C 61.770381,37.396044 61.551958,37.299723 61.284996,37.464716 C 61.018026,37.629710 60.799602,37.861030 60.799602,37.978758 C 60.799602,38.096478 61.018026,38.192799 61.284996,38.192799 C 61.551958,38.192799 61.770381,37.961489 61.770381,37.678766 z M 59.212850,33.973311 C 58.740578,33.850247 58.085306,33.858335 57.756676,33.991297 C 57.428056,34.124259 57.814452,34.224945 58.615345,34.215056 C 59.416239,34.205168 59.685123,34.096375 59.212850,33.973311 z M 62.996697,33.432648 C 62.847257,33.283199 62.455592,33.432337 62.126330,33.764059 C 61.650522,34.243440 61.706281,34.299198 62.398052,34.035781 C 62.876753,33.853508 63.146147,33.582088 62.996697,33.432648 z M 68.565839,32.824868 C 68.565839,32.573659 68.383820,32.368121 68.161353,32.368121 C 67.938875,32.368121 67.756857,32.686156 67.756857,33.074852 C 67.756857,33.463558 67.938875,33.669096 68.161353,33.531599 C 68.383820,33.394103 68.565839,33.076078 68.565839,32.824868 z M 66.618916,31.872706 C 66.330207,31.333260 66.255237,30.623380 66.452310,30.295183 C 66.677813,29.919665 66.501668,29.949180 65.977124,30.374810 C 65.196112,31.008560 65.194981,31.107898 65.959176,31.952333 C 67.022007,33.126736 67.273782,33.096354 66.618916,31.872706 z M 64.156886,32.193710 C 64.045642,32.097785 63.299357,31.872725 62.498464,31.693582 C 61.435021,31.455702 61.238655,31.500733 61.770381,31.860555 C 62.425841,32.304115 64.643958,32.613760 64.156886,32.193710 z M 59.828822,30.867567 C 60.476005,30.409877 60.476005,30.376441 59.828822,30.566717 C 59.428380,30.684445 58.663883,30.556102 58.129960,30.281505 C 57.262147,29.835194 57.229833,29.867894 57.825349,30.589793 C 58.601073,31.530153 58.844261,31.563872 59.828822,30.867567 z M 62.255776,30.199108 C 62.255776,29.748111 61.973374,29.594617 61.486990,29.781264 C 60.868011,30.018786 60.844369,30.156245 61.365641,30.486685 C 62.227751,31.033173 62.255776,31.024114 62.255776,30.199108 z M 75.070061,29.941177 C 76.977015,29.941177 75.025228,28.876970 72.921258,28.769545 C 71.652843,28.704784 70.639964,28.352201 70.270394,27.846784 C 69.405419,26.663868 69.051233,26.836083 69.051233,28.439567 C 69.051233,29.596201 69.220639,29.805990 69.991772,29.604336 C 70.509066,29.469055 71.428480,29.705908 72.034903,30.130670 C 72.763089,30.640706 73.300801,30.739657 73.618393,30.422065 C 73.882885,30.157574 74.536139,29.941177 75.070061,29.941177 z M 64.197335,29.941177 C 64.197335,29.674216 63.966016,29.455782 63.683293,29.455782 C 63.400571,29.455782 63.304250,29.674216 63.469243,29.941177 C 63.634237,30.208138 63.865557,30.426562 63.983285,30.426562 C 64.101014,30.426562 64.197335,30.208138 64.197335,29.941177 z M 77.393869,25.241093 C 77.043482,25.100881 76.624828,25.118123 76.463539,25.279412 C 76.302240,25.440701 76.588932,25.555423 77.100607,25.534345 C 77.666062,25.511061 77.781076,25.396038 77.393869,25.241093 z M 90.259774,131.56264 C 89.742179,131.04504 90.404180,130.41686 91.467237,130.41686 C 92.302490,130.41686 92.368458,130.53777 91.864549,131.14495 C 91.212059,131.93115 90.748855,132.05172 90.259774,131.56264 z M 38.228964,119.75549 C 36.894148,118.19962 35.713938,117.01027 35.606286,117.11248 C 35.498643,117.21468 34.892504,116.59612 34.259309,115.73788 C 33.081936,114.14203 31.446223,112.99072 30.312731,112.96003 C 29.963278,112.95058 29.806937,113.15251 29.965314,113.40877 C 30.137340,113.68711 29.666415,113.67012 28.795680,113.36657 C 27.658276,112.97008 27.002231,112.14799 25.809257,109.62427 C 23.350725,104.42327 23.321342,104.29522 24.448386,103.69205 C 25.014595,103.38902 25.327483,102.86364 25.176318,102.46973 C 25.030517,102.08976 25.122784,101.77887 25.381365,101.77887 C 25.639956,101.77887 25.851526,101.43750 25.851526,101.02028 C 25.851526,100.51218 26.212169,100.31182 26.943655,100.41353 C 27.701261,100.51888 28.037678,100.31570 28.041967,99.750220 C 28.045379,99.301882 28.209195,98.774020 28.406013,98.577193 C 28.602831,98.380375 28.763865,98.456815 28.763865,98.747070 C 28.763865,99.037315 29.419146,99.418706 30.220039,99.594615 C 31.020933,99.770525 31.676204,100.18967 31.676204,100.52605 C 31.676204,100.86244 32.276876,101.43874 33.011029,101.80672 C 33.745183,102.17472 34.466242,102.54114 34.613391,102.62101 C 34.760541,102.70087 34.791243,101.99800 34.681640,101.05907 C 34.437434,98.967341 35.352691,98.762322 35.802020,100.80809 C 35.977920,101.60899 36.305975,102.26425 36.531026,102.26425 C 36.756077,102.26425 37.207846,103.08335 37.534959,104.08446 C 37.862071,105.08559 38.588890,106.37556 39.150113,106.95108 C 40.612329,108.45055 41.384000,109.45210 41.384000,109.85044 C 41.384000,110.04091 41.728165,110.57705 42.148809,111.04184 C 43.170652,112.17097 43.412463,115.80969 42.547714,117.04430 C 42.174637,117.57694 41.869395,118.39683 41.869395,118.86626 C 41.869395,119.37634 41.371350,119.84480 40.631710,120.03043 C 39.408854,120.33735 39.405941,120.34941 40.389022,121.03798 C 41.360490,121.71843 41.746029,122.68359 41.019954,122.61748 C 40.819733,122.59925 39.563790,121.31135 38.228964,119.75549 z M 42.036886,112.19381 C 41.878802,111.78185 41.645362,111.54890 41.518131,111.67613 C 41.390891,111.80336 41.430765,112.14043 41.606732,112.42515 C 42.085358,113.19957 42.365102,113.04912 42.036886,112.19381 z M 46.507791,121.72385 C 46.219036,121.25664 49.941270,119.25810 51.123696,119.24546 C 51.706995,119.23924 51.701829,119.16174 51.091796,118.76751 C 50.518282,118.39687 50.505396,118.29540 51.031127,118.28955 C 51.513071,118.28419 51.617603,117.87748 51.407305,116.82595 C 51.243018,116.00452 51.322361,115.36978 51.589323,115.36978 C 51.849610,115.36978 52.062576,115.58821 52.062576,115.85517 C 52.062576,116.12214 52.519445,116.79743 53.077840,117.35583 L 54.093113,118.37110 L 52.956491,119.17249 C 52.331357,119.61326 51.710671,119.97583 51.577191,119.97819 C 51.443701,119.98056 50.645494,120.47361 49.803397,121.07387 C 48.193682,122.22127 46.964981,122.46361 46.507791,121.72385 z M 51.188871,109.93342 C 50.868518,109.61306 50.606411,109.17621 50.606411,108.96264 C 50.606411,108.24746 51.337482,108.56441 51.949928,109.54511 C 52.613674,110.60794 52.116873,110.86142 51.188871,109.93342 z M 127.53909,109.42376 C 127.73394,108.82308 128.09244,105.92895 128.33574,102.99235 C 128.59751,99.831317 129.08741,97.098188 129.53650,96.292986 C 130.17515,95.147918 130.20447,94.555475 129.72230,92.545272 C 129.40377,91.217657 129.29621,89.289409 129.47994,88.202022 C 129.77810,86.437051 129.71145,86.246398 128.79679,86.246398 C 128.21960,86.246398 127.78343,85.933020 127.78343,85.518316 C 127.78343,84.600787 126.85114,84.608432 125.62465,85.536028 C 125.10467,85.929231 124.29380,86.128613 123.82275,85.979088 C 123.35161,85.829563 122.54441,85.932945 122.02896,86.208824 C 120.81133,86.860438 118.72108,85.291917 117.76833,83.011773 C 117.39711,82.123269 116.82293,81.450055 116.49234,81.515749 C 116.06287,81.601107 115.89134,80.713564 115.89134,78.405395 C 115.89134,76.629018 116.06325,75.281721 116.27327,75.411412 C 116.48329,75.541094 116.60933,74.919466 116.55324,74.029991 C 116.49725,73.140526 116.86894,71.648295 117.37929,70.713921 C 117.88974,69.779547 118.31008,68.687418 118.31347,68.286967 C 118.31677,67.886525 118.53773,67.589483 118.80431,67.626879 C 119.47238,67.720579 122.07892,65.818414 121.74287,65.482421 C 121.59345,65.332981 121.83317,64.810748 122.27556,64.321894 C 122.71795,63.833039 122.91016,63.433069 122.70259,63.433069 C 122.49501,63.433069 122.62501,63.050830 122.99142,62.583638 C 123.59519,61.813786 123.57804,61.796611 122.80817,62.400385 C 122.34098,62.766768 121.93140,62.930593 121.89803,62.764421 C 121.86466,62.598249 121.80518,62.189257 121.76577,61.855555 C 121.72646,61.521854 121.28558,61.320181 120.78616,61.407415 C 119.98122,61.548003 119.91835,61.355060 120.23329,59.708553 C 120.42870,58.686945 120.56982,57.337744 120.54701,56.710328 C 120.48215,54.933065 120.92652,54.639389 122.47164,55.438388 C 123.80173,56.126218 123.90024,56.115859 123.90024,55.288212 C 123.90024,54.799292 123.35425,53.659126 122.68675,52.754493 C 121.24250,50.796843 121.23628,50.768874 122.32279,51.110494 C 123.09134,51.352173 123.09832,51.316088 122.39594,50.731215 C 121.55405,50.030187 121.50117,49.896998 121.41699,48.264641 C 121.37466,47.442792 121.30575,47.382735 121.13872,48.021944 C 121.01664,48.489135 120.63062,48.871375 120.28089,48.871375 C 119.38876,48.871375 118.95929,46.932756 119.78147,46.617258 C 120.14440,46.478017 120.32152,46.052048 120.17513,45.670667 C 119.98188,45.167126 120.14628,45.068288 120.77551,45.309722 C 121.45488,45.570443 121.57253,45.461443 121.32046,44.804626 C 121.11788,44.276774 121.18877,44.084283 121.51201,44.284061 C 121.79405,44.458415 121.90199,44.921337 121.75182,45.312786 C 121.60156,45.704225 122.01775,46.989995 122.67657,48.170054 C 123.33530,49.350114 123.76421,50.700550 123.62960,51.171013 C 123.49056,51.657058 123.62668,51.568872 123.94492,50.966785 C 124.40795,50.090837 124.31680,49.602605 123.41920,48.150258 C 122.82202,47.183966 122.42780,46.298950 122.54318,46.183559 C 122.82919,45.897593 125.66000,49.960609 126.06591,51.239723 C 126.24558,51.805885 126.55166,52.269108 126.74594,52.269108 C 127.48904,52.269108 132.63728,63.728725 132.63728,65.382895 C 132.63728,65.808063 132.28501,65.664911 131.64758,64.980766 C 130.75856,64.026445 129.72493,63.570933 129.72493,64.133409 C 129.72493,64.467516 131.73996,67.801582 131.94188,67.801582 C 132.04067,67.801582 131.98402,67.443465 131.81604,67.005769 C 131.56548,66.352713 131.67068,66.299510 132.40275,66.709199 C 132.89340,66.983786 133.33777,67.614926 133.39028,68.111745 C 133.44279,68.608565 133.62425,69.670330 133.79355,70.471223 C 133.96285,71.272117 134.42127,74.162181 134.81238,76.893595 C 135.58093,82.261840 135.20349,89.184321 133.80741,95.325864 C 133.43081,96.982514 133.12143,99.057554 133.11992,99.937065 C 133.11540,102.61419 132.16925,105.26295 131.11932,105.53749 C 130.59341,105.67503 129.62398,106.85145 128.96506,108.15173 C 127.71961,110.60951 126.92420,111.31903 127.53909,109.42376 z M 130.78467,62.842511 C 130.43645,62.494217 130.21031,62.465560 130.21031,62.769700 C 130.21031,63.417590 130.78439,63.991623 131.10829,63.667678 C 131.24620,63.529748 131.10065,63.158425 130.78467,62.842511 z M 129.50605,62.826335 C 129.10014,60.975611 127.43974,58.103005 126.77328,58.098725 C 125.88539,58.093003 124.65663,60.120279 124.97289,61.069075 C 125.09101,61.423318 125.60787,61.735131 126.12143,61.761996 C 128.64408,61.893959 129.23503,62.005740 129.18206,62.340941 C 129.09335,62.902964 129.21816,63.433069 129.43931,63.433069 C 129.54913,63.433069 129.57920,63.160037 129.50605,62.826335 z M 61.284996,107.32040 C 61.284996,106.89770 61.544369,106.63833 61.861395,106.74400 C 62.761409,107.04400 62.910689,108.08893 62.053528,108.08893 C 61.630830,108.08893 61.284996,107.74310 61.284996,107.32040 z M 62.988751,106.64069 C 62.821070,106.36936 63.024393,106.14737 63.440596,106.14737 C 64.293204,106.14737 64.418738,106.43864 63.745480,106.85473 C 63.496958,107.00832 63.156440,106.91200 62.988751,106.64069 z M 52.831164,105.34982 C 52.424812,104.29087 52.964353,103.79866 53.537707,104.70526 C 54.111702,105.61287 54.123919,106.14737 53.570681,106.14737 C 53.332273,106.14737 52.999495,105.78847 52.831164,105.34982 z M 48.664852,100.33793 C 48.664852,100.07935 48.337212,99.993502 47.936760,100.14716 C 47.052083,100.48665 46.972051,99.667172 47.821077,98.962543 C 48.274779,98.586007 48.577411,98.759287 48.988882,99.631191 C 49.294360,100.27849 49.346414,100.80809 49.104565,100.80809 C 48.862726,100.80809 48.664852,100.59652 48.664852,100.33793 z M 39.189374,99.713419 C 38.661155,99.422250 37.943545,98.784955 37.594705,98.297195 C 36.919477,97.353074 35.559322,97.084802 35.559322,97.895754 C 35.559322,98.162715 35.122475,98.381139 34.588543,98.381139 C 34.054611,98.381139 33.617763,98.162715 33.617763,97.895754 C 33.617763,97.628792 33.180916,97.410359 32.646984,97.410359 C 32.113052,97.410359 31.676204,97.191935 31.676204,96.924974 C 31.676204,96.658013 31.896475,96.439579 32.165709,96.439579 C 33.124168,96.439579 31.497183,94.592456 29.844568,93.804373 C 28.740091,93.277681 28.277132,92.774687 28.459490,92.299473 C 28.622230,91.875389 28.450252,91.585681 28.035783,91.585681 C 27.615102,91.585681 27.449081,91.874710 27.617553,92.313773 C 27.820856,92.843557 27.560117,93.041855 26.660187,93.041855 C 25.979973,93.041855 25.288438,92.823432 25.123444,92.556461 C 24.958450,92.289500 25.273195,92.071076 25.822879,92.071076 C 26.372563,92.071076 26.849605,91.852652 26.882985,91.585681 C 26.916355,91.318720 26.970954,90.900075 27.004324,90.655351 C 27.102719,89.933858 27.793086,89.427866 27.793086,90.077265 C 27.793086,90.404481 27.986764,90.552498 28.223476,90.406206 C 28.460187,90.259896 28.923787,90.465434 29.253690,90.862944 C 29.583593,91.260445 29.673871,91.585681 29.454307,91.585681 C 29.234743,91.585681 29.307950,91.838540 29.617001,92.147582 C 30.042593,92.573184 30.351192,92.566491 30.889205,92.119972 C 31.459194,91.646917 32.068558,91.768152 33.973947,92.733681 C 35.279890,93.395457 36.634445,94.281585 36.984068,94.702851 C 37.333691,95.124126 38.221536,95.468800 38.957056,95.468800 C 40.308274,95.468800 41.645211,94.435644 41.056200,93.846623 C 40.880535,93.670968 40.978751,93.527241 41.274454,93.527241 C 42.309673,93.527241 42.395880,94.494504 41.451052,95.508655 C 40.811890,96.194714 40.177471,96.430172 39.525584,96.223277 C 37.827711,95.684396 37.724811,96.987830 39.350541,98.440423 C 40.938706,99.859446 40.841876,100.62430 39.189374,99.713419 z M 44.969257,98.291878 C 44.743509,97.926616 44.883748,97.831030 45.371037,98.018035 C 45.782744,98.176016 46.339988,98.084898 46.609353,97.815524 C 46.938766,97.486121 47.205878,97.498535 47.425235,97.853456 C 47.604604,98.143683 47.683863,98.397371 47.601371,98.417214 C 46.061093,98.787604 45.251819,98.749068 44.969257,98.291878 z M 23.117247,96.850212 C 22.885833,96.478068 22.103510,95.796582 21.378746,95.335800 C 19.522959,94.155948 18.828417,92.747680 19.899599,92.336633 C 20.353763,92.162354 20.567709,92.177398 20.375039,92.370078 C 19.883593,92.861515 21.503460,94.542683 22.108270,94.168881 C 22.387524,93.996299 22.456470,94.101009 22.266251,94.408797 C 22.062061,94.739171 22.415983,95.077256 23.162032,95.264497 C 24.491975,95.598293 24.609949,95.834665 23.959240,96.861863 C 23.603603,97.423273 23.472469,97.421454 23.117247,96.850212 z M 24.690810,96.719804 C 24.836564,96.339997 25.290879,95.900670 25.700408,95.743519 C 26.234171,95.538698 26.360987,95.676751 26.148266,96.231082 C 25.985054,96.656391 25.851526,97.095718 25.851526,97.207367 C 25.851526,97.319015 25.530739,97.410359 25.138677,97.410359 C 24.721673,97.410359 24.535799,97.123771 24.690810,96.719804 z M 43.325559,96.439579 C 42.670929,95.216393 43.217964,95.216393 44.781733,96.439579 C 45.982371,97.378742 45.983832,97.388885 44.920154,97.399566 C 44.328880,97.405504 43.611308,96.973511 43.325559,96.439579 z M 27.793086,96.225539 C 27.793086,96.107810 28.011509,95.876491 28.278480,95.711497 C 28.545441,95.546503 28.763865,95.642824 28.763865,95.925547 C 28.763865,96.208269 28.545441,96.439579 28.278480,96.439579 C 28.011509,96.439579 27.793086,96.343258 27.793086,96.225539 z M 29.532218,95.533947 C 29.323127,95.195626 29.283129,94.787747 29.443344,94.627523 C 29.877750,94.193117 30.351399,94.832023 30.116771,95.535908 C 29.952362,96.029145 29.838026,96.028759 29.532218,95.533947 z M 22.784685,93.696335 C 22.602696,93.514345 22.427955,92.364328 22.396366,91.140746 C 22.348008,89.267360 22.290524,89.141647 22.032320,90.344688 C 21.863688,91.130442 21.561895,91.731115 21.361674,91.679514 C 21.161444,91.627912 20.803516,91.585681 20.566258,91.585681 C 19.580254,91.585681 19.525834,88.269743 20.473509,85.934217 C 21.405395,83.637605 21.534530,83.674774 21.728331,86.295398 C 21.866110,88.158612 22.427917,88.791467 23.724169,88.543670 C 24.484556,88.398312 24.880747,88.548930 24.880747,88.983346 C 24.880747,89.346779 24.389291,89.657970 23.788618,89.674891 L 22.696490,89.705659 L 23.788618,90.144637 C 24.389291,90.386080 24.877400,90.863689 24.873319,91.206006 C 24.867597,91.685038 24.769777,91.676705 24.448603,91.169817 C 24.219094,90.807610 23.909213,90.708828 23.759971,90.950300 C 23.610739,91.191772 23.689300,91.706549 23.934561,92.094246 C 24.179822,92.481953 24.366592,93.126799 24.349605,93.527241 C 24.325416,94.097484 24.261674,94.111888 24.055589,93.593670 C 23.870309,93.127788 23.692316,93.094041 23.454012,93.479617 C 23.267874,93.780797 22.966675,93.878325 22.784685,93.696335 z M 71.073692,92.071076 C 71.318010,91.338111 72.098561,91.262575 72.327609,91.949727 C 72.438852,92.283429 72.165820,92.556461 71.720875,92.556461 C 71.275930,92.556461 70.984695,92.338037 71.073692,92.071076 z M 30.258358,91.383434 C 30.237281,90.871758 30.352002,90.585076 30.513291,90.746365 C 30.674581,90.907654 30.691822,91.326299 30.551611,91.676695 C 30.396665,92.063902 30.281642,91.948888 30.258358,91.383434 z M 18.295201,88.551994 C 17.739182,84.002914 17.731198,83.795595 18.103266,83.565643 C 18.292552,83.448659 18.597748,84.713850 18.781472,86.377183 C 18.965187,88.040516 19.235024,89.892890 19.381108,90.493553 C 19.527182,91.094225 19.426044,91.585681 19.156349,91.585681 C 18.886654,91.585681 18.499136,90.220521 18.295201,88.551994 z M 25.815460,91.464333 C 25.450406,90.236197 25.458069,88.915389 25.833993,88.271166 C 26.195597,87.651461 26.310885,87.947051 26.322159,89.522773 C 26.330275,90.657378 26.227704,91.585681 26.094224,91.585681 C 25.960743,91.585681 25.835294,91.531082 25.815460,91.464333 z M 47.694072,87.449468 C 47.694072,87.043295 47.148008,86.462173 46.480595,86.158080 C 45.424599,85.676937 44.799559,84.790224 45.516405,84.790224 C 45.963971,84.790224 47.927975,85.991739 48.293378,86.489095 C 48.810691,87.193225 48.743988,88.187957 48.179457,88.187957 C 47.912496,88.187957 47.694072,87.855632 47.694072,87.449468 z M 23.424582,84.304839 C 23.072329,83.646655 23.066833,83.334059 23.407501,83.334059 C 23.683861,83.334059 23.909967,82.993523 23.909967,82.577320 C 23.909967,82.161126 24.128391,81.955589 24.395362,82.120582 C 25.017743,82.505244 25.032741,85.275619 24.412433,85.275619 C 24.154861,85.275619 23.710331,84.838762 23.424582,84.304839 z M 21.005056,82.755964 C 21.009148,82.406510 21.224225,81.792938 21.483023,81.392496 C 21.865554,80.800572 21.954937,80.863296 21.960980,81.727885 C 21.965061,82.312810 21.749984,82.926368 21.483023,83.091362 C 21.216052,83.256356 21.000975,83.105427 21.005056,82.755964 z M 18.022650,81.271148 C 17.830347,76.428024 19.547063,65.324535 20.542955,64.970142 C 20.793024,64.881145 20.997628,64.318142 20.997628,63.718996 C 20.997628,62.403939 23.255648,56.652958 24.126298,55.750550 C 24.641518,55.216533 24.799980,55.241636 25.051510,55.897105 C 25.244821,56.400872 25.161933,56.568703 24.823188,56.359348 C 24.471180,56.141791 24.397973,56.366568 24.606659,57.024102 C 24.817956,57.689837 24.605349,58.312539 23.962181,58.911741 C 22.940762,59.863338 21.968408,62.010661 21.968408,63.314746 C 21.968408,63.974052 22.085750,63.948864 22.681059,63.161799 C 23.073007,62.643591 23.400648,61.618929 23.409141,60.884776 C 23.417635,60.150623 23.643006,59.549950 23.909967,59.549950 C 24.787574,59.549950 24.416911,62.876777 23.303233,64.995641 C 22.367935,66.775110 22.188830,66.916669 22.056000,65.981371 C 21.970689,65.380699 21.723128,64.889243 21.505873,64.889243 C 20.558547,64.889243 20.093646,70.883307 20.997628,71.442003 C 21.805035,71.941009 21.590920,73.771523 20.762340,73.453574 C 19.693006,73.043224 19.195422,74.448014 19.153851,77.994763 C 19.097669,82.787656 19.090335,82.848665 18.570684,82.848665 C 18.303713,82.848665 18.057104,82.138785 18.022650,81.271148 z M 22.564131,81.194114 C 22.713260,80.413949 22.592647,80.099779 22.201594,80.249832 C 21.432355,80.545017 20.763820,76.578247 21.464688,75.877379 C 21.812718,75.529349 21.968408,75.808018 21.968408,76.779005 C 21.968408,77.638221 22.468725,78.706566 23.255884,79.528179 C 24.331129,80.650491 24.441345,80.994911 23.924531,81.617641 C 22.999584,82.732143 22.311093,82.517801 22.564131,81.194114 z M 79.632724,73.043790 C 80.085757,72.590757 80.344631,72.590757 80.797664,73.043790 C 81.250687,73.496823 81.121260,73.626259 80.215194,73.626259 C 79.309128,73.626259 79.179701,73.496823 79.632724,73.043790 z M 82.642148,73.113207 C 82.642148,72.804335 82.951708,72.670402 83.330054,72.815591 C 83.708409,72.960779 84.143720,72.751886 84.297412,72.351368 C 84.466629,71.910382 84.817506,71.772980 85.187009,72.002999 C 85.522606,72.211902 86.267769,72.322061 86.842943,72.247798 C 87.418116,72.173526 88.031675,72.344081 88.206416,72.626814 C 88.383664,72.913608 88.135924,73.154213 87.646033,73.171058 C 87.163089,73.187659 85.839651,73.307791 84.705046,73.438020 C 83.330327,73.595812 82.642148,73.487453 82.642148,73.113207 z M 89.340521,73.043790 C 89.793554,72.590757 90.052427,72.590757 90.505460,73.043790 C 90.958483,73.496823 90.829056,73.626259 89.922990,73.626259 C 89.016924,73.626259 88.887497,73.496823 89.340521,73.043790 z M 78.140776,70.430255 C 77.400298,70.028654 76.547455,69.852725 76.245568,70.039296 C 75.909604,70.246936 75.831042,70.161145 76.043028,69.818139 C 76.263186,69.461917 76.014805,69.257746 75.361296,69.257746 C 74.795860,69.257746 74.439290,69.429367 74.568924,69.639128 C 74.698568,69.848889 74.383814,70.020509 73.869489,70.020509 C 72.578347,70.020509 72.697999,69.344622 74.102430,68.704726 C 75.044930,68.275287 75.841713,68.393996 78.228246,69.319396 C 81.135805,70.446827 82.009877,71.218159 80.336543,71.179877 C 79.869351,71.169188 78.881264,70.831857 78.140776,70.430255 z M 121.47336,63.947111 C 121.47336,63.664388 121.69177,63.433069 121.95874,63.433069 C 122.22570,63.433069 122.44411,63.529390 122.44411,63.647119 C 122.44411,63.764847 122.22570,63.996167 121.95874,64.161161 C 121.69177,64.326154 121.47336,64.229824 121.47336,63.947111 z M 122.44411,54.967397 C 122.44411,54.849668 122.66253,54.618358 122.92949,54.453364 C 123.19645,54.288371 123.41486,54.384692 123.41486,54.667405 C 123.41486,54.950127 123.19645,55.181447 122.92949,55.181447 C 122.66253,55.181447 122.44411,55.085126 122.44411,54.967397 z M 26.336921,52.569091 C 26.336921,52.168649 26.555345,51.706019 26.822306,51.541026 C 27.089267,51.376022 27.307700,51.568674 27.307700,51.969125 C 27.307700,52.369567 27.089267,52.832197 26.822306,52.997190 C 26.555345,53.162184 26.336921,52.969542 26.336921,52.569091 z M 28.278480,52.540453 C 28.278480,52.422724 28.496904,52.191404 28.763865,52.026411 C 29.030826,51.861417 29.249260,51.957738 29.249260,52.240461 C 29.249260,52.523183 29.030826,52.754493 28.763865,52.754493 C 28.496904,52.754493 28.278480,52.658172 28.278480,52.540453 z M 31.190819,49.870802 C 31.190819,49.588088 31.409243,49.356769 31.676204,49.356769 C 31.943165,49.356769 32.161599,49.453090 32.161599,49.570819 C 32.161599,49.688538 31.943165,49.919858 31.676204,50.084851 C 31.409243,50.249845 31.190819,50.153524 31.190819,49.870802 z M 31.907863,45.455787 C 31.743557,45.189938 31.351184,45.127129 31.035930,45.316217 C 30.709384,45.512064 30.749399,45.306602 31.128896,44.838741 C 31.821666,43.984691 33.383729,43.731502 33.800413,44.405721 C 33.932385,44.619252 33.627765,45.051631 33.123479,45.366555 C 32.531244,45.736417 32.100825,45.768006 31.907863,45.455787 z M 96.082227,38.622812 C 95.598831,38.341626 94.877602,38.236557 94.479498,38.389315 C 94.070789,38.546155 93.884783,38.458186 94.052237,38.187247 C 94.215346,37.923339 94.081073,37.707414 93.753857,37.707414 C 92.677782,37.707414 93.776038,37.064821 95.091878,36.924525 C 96.603434,36.763368 99.305858,38.025863 98.889931,38.698866 C 98.516063,39.303790 97.191239,39.267903 96.082227,38.622812 z"/>
  <path d="M 222.44791 56.485737 A 28.884468 28.884468 0 1 1 164.67898,56.485737 A 28.884468 28.884468 0 1 1 222.44791 56.485737 z" sodipodi:ry="28.884468" sodipodi:rx="28.884468" sodipodi:cy="56.485737" sodipodi:cx="193.56345" id="path3527" style="opacity:0.76923078;fill:url(#radialGradient10505);fill-opacity:1.0000000;stroke:url(#linearGradient10507);stroke-width:0.86460912;stroke-miterlimit:4.0000000;stroke-opacity:1.0000000;display:inline" sodipodi:type="arc" transform="matrix(1.171988,-0.209572,0.147654,0.825718,-164.6715,43.72481)"/>
  <path transform="matrix(-1.423145,0.623821,-0.455960,-1.040197,389.7192,43.51167)" sodipodi:type="arc" style="fill:url(#radialGradient10503);fill-opacity:1.0000000;stroke:none;stroke-width:1.2500000;stroke-miterlimit:4.0000000;stroke-opacity:1.0000000;display:inline" id="path3529" sodipodi:cx="193.56345" sodipodi:cy="56.485737" sodipodi:rx="28.884468" sodipodi:ry="28.884468" d="M 222.44791 56.485737 A 28.884468 28.884468 0 1 1 164.67898,56.485737 A 28.884468 28.884468 0 1 1 222.44791 56.485737 z"/>
  <path style="fill:url(#linearGradient3552);fill-opacity:1.0;fill-rule:evenodd;stroke:#3d7311;stroke-width:2.0000000;stroke-linecap:butt;stroke-linejoin:miter;stroke-miterlimit:4.0000000;stroke-opacity:1.0000000;display:inline;stroke-dasharray:none" d="M 57.376998,11.342796 C 76.563617,13.807663 91.311052,32.042506 94.248936,39.654476 C 88.727748,42.932406 82.881767,44.997491 82.881767,44.997491 L 117.16479,61.014190 L 131.85687,27.385718 L 121.60118,30.531506 C 112.31178,15.793432 98.581270,9.5222738 88.695010,6.4644073 C 78.808750,3.4065408 60.998858,8.2253528 57.376998,11.342796 z" id="path2335" sodipodi:nodetypes="cccccczc"/>
  <path style="fill:url(#linearGradient3556);fill-opacity:1.0;fill-rule:evenodd;stroke:#3d7311;stroke-width:2.0000000;stroke-linecap:butt;stroke-linejoin:miter;stroke-miterlimit:4.0000000;stroke-opacity:1.0000000;display:inline;stroke-dasharray:none;opacity:1.0000000" d="M 146.93569,97.895889 C 135.20774,113.27954 112.04218,116.93378 103.98108,115.67208 C 103.90290,109.25163 105.03748,103.15631 105.03748,103.15631 L 74.025099,124.83794 L 95.802167,154.37589 L 98.205686,143.92130 C 115.61393,143.24548 127.91017,134.49010 135.50148,127.45727 C 143.09281,120.42445 147.82454,102.59123 146.93569,97.895889 z" id="path2367" sodipodi:nodetypes="cccccczc"/>
  <path style="stroke-dasharray:none;display:inline;stroke-opacity:1.0000000;stroke-miterlimit:4.0000000;stroke-linejoin:miter;stroke-linecap:butt;stroke-width:2.0000000;stroke:#3d7311;fill-rule:evenodd;fill-opacity:1.0;fill:url(#linearGradient3554)" d="M 27.164453,133.07340 C 19.705797,115.22486 28.123911,93.335780 33.247127,86.985523 C 38.846489,90.128050 43.557894,94.158270 43.557894,94.158270 L 40.287251,56.459945 L 3.8181013,60.550458 L 11.670280,67.859268 C 3.5514322,83.273158 4.9856989,98.299705 7.2806423,108.39039 C 9.5755858,118.48108 22.653749,131.49549 27.164453,133.07340 z" id="path2383" sodipodi:nodetypes="cccccczc"/>
  <metadata>
    <rdf:RDF>
      <cc:Work>
        <dc:format>image/svg+xml</dc:format>
        <dc:type rdf:resource="http://purl.org/dc/dcmitype/StillImage"/>
        <cc:license rdf:resource="http://creativecommons.org/licenses/publicdomain/"/>
        <dc:publisher>
          <cc:Agent rdf:about="http://openclipart.org/">
            <dc:title>Open Clip Art Library</dc:title>
          </cc:Agent>
        </dc:publisher>
        <dc:title>crystal earth recycle</dc:title>
        <dc:date>2006-12-21T14:34:19</dc:date>
        <dc:description>Crystal Blue Earth with three green arrows, recycling symbol.\n\nREMIX: In this clipart I remix the blue sphere and the globe, sphere was lost and globe couldn't be added as remix because site din't allow that.</dc:description>
        <dc:source>http://openclipart.org/detail/2213/crystal-earth-recycle-by-kuba</dc:source>
        <dc:creator>
          <cc:Agent>
            <dc:title>kuba</dc:title>
          </cc:Agent>
        </dc:creator>
        <dc:subject>
          <rdf:Bag>
            <rdf:li>arrow</rdf:li>
            <rdf:li>arrow</rdf:li>
            <rdf:li>clip art</rdf:li>
            <rdf:li>clipart</rdf:li>
            <rdf:li>earth</rdf:li>
            <rdf:li>earth</rdf:li>
            <rdf:li>globe</rdf:li>
            <rdf:li>globe</rdf:li>
            <rdf:li>green</rdf:li>
            <rdf:li>green</rdf:li>
            <rdf:li>image</rdf:li>
            <rdf:li>media</rdf:li>
            <rdf:li>planet</rdf:li>
            <rdf:li>planet</rdf:li>
            <rdf:li>png</rdf:li>
            <rdf:li>public domain</rdf:li>
            <rdf:li>recycle</rdf:li>
            <rdf:li>recycle</rdf:li>
            <rdf:li>remix</rdf:li>
            <rdf:li>remix problem</rdf:li>
            <rdf:li>svg</rdf:li>
            <rdf:li>symbol</rdf:li>
            <rdf:li>symbol</rdf:li>
            <rdf:li>world</rdf:li>
            <rdf:li>world</rdf:li>
          </rdf:Bag>
        </dc:subject>
      </cc:Work>
      <cc:License rdf:about="http://creativecommons.org/licenses/publicdomain/">
        <cc:permits rdf:resource="http://creativecommons.org/ns#Reproduction"/>
        <cc:permits rdf:resource="http://creativecommons.org/ns#Distribution"/>
        <cc:permits rdf:resource="http://creativecommons.org/ns#DerivativeWorks"/>
      </cc:License>
    </rdf:RDF>
  </metadata>
</svg>
